<svg xmlns="http://www.w3.org/2000/svg" viewBox="0 0 160 160">
  <rect width="160" height="160" fill="#7a2f3f"/>
  <path d="M14 162 Q80 108 146 162 Z" fill="#22303c"/>
  <rect x="66" y="92" width="28" height="26" fill="#d9a878"/>
  <circle cx="43" cy="73" r="7" fill="#d9a878"/>
  <circle cx="117" cy="73" r="7" fill="#d9a878"/>
  <circle cx="80" cy="70" r="40" fill="#d9a878"/>
  
      <path d="M32 100 C28 60 40 24 80 24 C120 24 132 60 128 100 L116 100 C120 66 112 38 80 38 C48 38 40 66 44 100 Z" fill="#2b2018"/>
      <path d="M46 42 Q80 30 114 42 L114 54 Q80 44 46 54 Z" fill="#2b2018"/>
    
  <circle cx="65" cy="68" r="4.2" fill="#2b2b2b"/>
  <circle cx="95" cy="68" r="4.2" fill="#2b2b2b"/>
  <path d="M65 91 Q80 100 95 91" stroke="#8a4a3a" stroke-width="3" fill="none" stroke-linecap="round" opacity="0.75"/>
</svg>
